
<svg width="1034px" height="356px" viewBox="0 0 1034 356" version="1.1" xmlns="http://www.w3.org/2000/svg" xmlns:xlink="http://www.w3.org/1999/xlink">
    <!-- Generator: Sketch 50.2 (55047) - http://www.bohemiancoding.com/sketch -->
    <desc>Created with Sketch.</desc>
    <defs></defs>
    <g id="Welcome" stroke="none" stroke-width="1" fill="none" fill-rule="evenodd">
        <g id="Desktop-HD-Home" transform="translate(-52.000000, -111.000000)" fill-rule="nonzero">
            <g id="Header-Copy" transform="translate(-6.000000, 26.000000)">
                <g id="Header-Shapes" transform="translate(51.000000, 85.000000)">
                    <g id="Square_Solid_Teal" transform="translate(527.733903, 37.733903) rotate(9.000000) translate(-527.733903, -37.733903) translate(512.233903, 22.233903)" fill="#007A87">
                        <rect id="Rectangle-path" x="0" y="0" width="30.7019718" height="30.7019718"></rect>
                    </g>
                    <g id="Square_Lines_Orange" transform="translate(878.000000, 163.000000)" fill="#F2B22D">
                        <g id="Square">
                            <polygon id="Shape" points="41.8680628 20.7800931 20.9120419 0.0218968315 0.0659685864 20.8895773"></polygon>
                            <polygon id="Shape" points="39.2073298 24.3930703 41.6481675 21.9844189 0.285863874 22.0720062 2.72670157 24.5025545"></polygon>
                            <polygon id="Shape" points="35.7549738 27.8746666 38.0198953 25.5973961 3.93612565 25.6849834 6.20104712 27.9403571"></polygon>
                            <polygon id="Shape" points="32.3905759 31.2248818 34.5455497 29.0789923 7.4104712 29.1446828 9.58743455 31.2905723"></polygon>
                            <polygon id="Shape" points="28.982199 34.6407875 31.1811518 32.4292075 10.7968586 32.4730012 13.017801 34.6845812"></polygon>
                            <polygon id="Shape" points="26.0356021 37.5968598 27.7727749 35.8451132 14.2052356 35.8670101 15.9643979 37.6187566"></polygon>
                            <g id="Group" transform="translate(17.151832, 38.757392)">
                                <polygon id="Shape" points="6.15706806 1.55467504 7.69633508 0.0218968315 0.0219895288 0.0437936631 1.56125654 1.57657187"></polygon>
                                <polygon id="Shape" points="2.77068063 2.75900077 3.87015707 3.85384235 4.96963351 2.75900077"></polygon>
                            </g>
                        </g>
                    </g>
                    <g id="Open_Circle_Purpel" transform="translate(60.000000, 93.000000)" fill="#3B0083">
                        <path d="M15,0 C6.71590909,0 0,6.71590909 0,15 C0,23.2840909 6.71590909,30 15,30 C23.2840909,30 30,23.2840909 30,15 C30,6.71590909 23.2840909,0 15,0 Z M15,25.2784091 C9.32386364,25.2784091 4.73863636,20.6761364 4.73863636,15.0170455 C4.73863636,9.34090909 9.34090909,4.75568182 15,4.75568182 C20.6761364,4.75568182 25.2613636,9.35795455 25.2613636,15.0170455 C25.2613636,20.6761364 20.6761364,25.2784091 15,25.2784091 Z" id="Shape"></path>
                    </g>
                    <g id="Open_Circle_Teal" transform="translate(878.000000, 78.000000)" fill="#007A87">
                        <path d="M15,0 C6.71590909,0 0,6.71590909 0,15 C0,23.2840909 6.71590909,30 15,30 C23.2840909,30 30,23.2840909 30,15 C30,6.71590909 23.2840909,0 15,0 Z M15,25.2784091 C9.32386364,25.2784091 4.73863636,20.6761364 4.73863636,15.0170455 C4.73863636,9.34090909 9.34090909,4.75568182 15,4.75568182 C20.6761364,4.75568182 25.2613636,9.35795455 25.2613636,15.0170455 C25.2613636,20.6761364 20.6761364,25.2784091 15,25.2784091 Z" id="Shape"></path>
                    </g>
                    <g id="Open_SemiCircle_Blue" transform="translate(774.859963, 245.723123) rotate(-32.000000) translate(-774.859963, -245.723123) translate(765.359963, 227.223123)" fill="#00B9E4">
                        <path d="M18.8683038,30.3738674 C18.5818003,30.3943764 18.2952968,30.4148854 18.0087933,30.4148854 C11.1941022,30.4148854 5.68914151,24.8774484 5.68914151,18.0684518 C5.68914151,11.2389462 11.2145667,5.72201823 18.0087933,5.72201823 C18.2952968,5.72201823 18.5818003,5.74252726 18.8683038,5.76303628 L18.8683038,0.0205090259 C18.5818003,0 18.2952968,0 18.0087933,0 C8.06302789,0 0,8.08055621 0,18.0479428 C0,28.0153294 8.06302789,36.0958856 18.0087933,36.0958856 C18.2952968,36.0958856 18.5818003,36.0958856 18.8683038,36.0753766 L18.8683038,30.3738674 Z" id="Shape"></path>
                    </g>
                    <g id="Open_SemiCircle_Orange" transform="translate(19.999941, 204.307816) rotate(24.000000) translate(-19.999941, -204.307816) translate(10.499941, 186.307816)" fill="#EC7A08">
                        <path d="M18.5773509,29.5279017 C18.2952653,29.5478395 18.0131797,29.5677774 17.7310941,29.5677774 C11.0214869,29.5677774 5.60141383,24.1845677 5.60141383,17.5652137 C5.60141383,10.9259218 11.0416359,5.56264996 17.7310941,5.56264996 C18.0131797,5.56264996 18.2952653,5.58258777 18.5773509,5.60252558 L18.5773509,0.0199378135 C18.2952653,0 18.0131797,0 17.7310941,0 C7.93869442,0 0,7.8554985 0,17.5452758 C0,27.2350532 7.93869442,35.0905517 17.7310941,35.0905517 C18.0131797,35.0905517 18.2952653,35.0905517 18.5773509,35.0706139 L18.5773509,29.5279017 Z" id="Shape"></path>
                    </g>
                    <g id="QuarterCircle_Blue" transform="translate(523.394643, 283.394643) rotate(-64.000000) translate(-523.394643, -283.394643) translate(507.394643, 267.394643)" fill="#00B9E4">
                        <path d="M0,31.8931892 L31.8931892,31.8931892 C31.8931892,14.2680057 17.9607419,0 0.817774081,0 C0.545182721,0 0.27259136,0 0,0 L0,31.8931892 Z" id="Shape"></path>
                    </g>
                    <g id="QuarterCircle_Gold" transform="translate(19.595918, 19.595918) rotate(-165.000000) translate(-19.595918, -19.595918) translate(3.595918, 3.595918)" fill="#F2B22D">
                        <path d="M0,31.5821598 L31.5821598,31.5821598 C31.5821598,14.128861 17.7855848,0 0.809798969,0 C0.53986598,0 0.26993299,0 0,0 L0,31.5821598 Z" id="Shape"></path>
                    </g>
                    <g id="Rectangle_Green" transform="translate(71.091883, 337.091883) rotate(45.000000) translate(-71.091883, -337.091883) translate(62.091883, 319.091883)" fill="#92D400">
                        <rect id="Rectangle-path" x="0" y="0" width="17.6789102" height="35.3578203"></rect>
                    </g>
                    <g id="Rectangle_teal" transform="translate(1026.552590, 224.663951) rotate(-25.000000) translate(-1026.552590, -224.663951) translate(1017.552590, 207.163951)" fill="#007A87">
                        <rect id="Rectangle-path" x="0" y="0" width="17.114732" height="34.2294639"></rect>
                    </g>
                    <g id="Square_Lines_Green" transform="translate(676.000000, 39.000000)" fill="#CAE883">
                        <g id="Square_Green">
                            <polygon id="Shape" points="42 20.8567248 20.9447659 0 0 20.9667286"></polygon>
                            <polygon id="Shape" points="39.1583638 24.5594928 41.5882353 22.2000656 0.411764706 22.2858629 2.84163618 24.6667395"></polygon>
                            <polygon id="Shape" points="36.0230361 27.886479 38.2941176 25.4889642 4.11764706 25.5811763 6.38872865 27.9556381"></polygon>
                            <polygon id="Shape" points="32.4299743 31.1834804 34.5882353 29.1889751 7.41176471 29.2500314 9.59204881 31.2445367"></polygon>
                            <polygon id="Shape" points="29.0731645 34.4935215 31.2941176 32.4778737 10.7058824 32.5177875 12.949045 34.5334353"></polygon>
                            <polygon id="Shape" points="25.8484126 37.3909197 27.5882353 35.7667723 14 35.7870741 15.7618457 37.4112216"></polygon>
                            <g id="Group" transform="translate(17.294118, 38.644559)">
                                <polygon id="Shape" points="6.25882353 1.62160973 7.82352941 0.0228395736 0.0223529412 0.0456791472 1.58705882 1.6444493"></polygon>
                                <polygon id="Shape" points="2.81647059 2.87778628 3.93411765 4.01976496 5.05176471 2.87778628"></polygon>
                            </g>
                        </g>
                    </g>
                    <g id="Square_Solid_Red" transform="translate(697.890269, 159.890269) rotate(42.000000) translate(-697.890269, -159.890269) translate(682.390269, 144.390269)" fill="#CC0000">
                        <rect id="Rectangle-path" x="0" y="0" width="30.6216649" height="30.6216649"></rect>
                    </g>
                </g>
            </g>
        </g>
    </g>
</svg>